<?xml version="1.0" encoding="utf-8"?>
<!-- Generator: Adobe Illustrator 25.2.0, SVG Export Plug-In . SVG Version: 6.00 Build 0)  -->
<svg version="1.1" id="Layer_1" xmlns="http://www.w3.org/2000/svg" xmlns:xlink="http://www.w3.org/1999/xlink" x="0px" y="0px"
	 viewBox="0 0 147 33" style="enable-background:new 0 0 147 33;" xml:space="preserve">
<style type="text/css">
	.st0{fill:#606771;}
	.st1{font-family:Arial, sans-serif;}
	.st2{font-size:10px;}
	.st3{fill:#FFFFFF;}
	.st4{fill:#005C83;}
	.st5{fill:#0078A4;}
	.st6{fill:#0098CE;}
</style>
<g id="Admin-Console_1_">
	<g id="Logo">
		<text transform="matrix(1 0 0 1 47 30)" font-family="sans-serif" class="st0 st1 st2">Admin Console</text>
		<path id="Combined-Shape" class="st3" d="M134.5,7.1c1.3,0,2.3,0.5,2.9,1.4V7.2h2.7v8.7c0,2.7-2,4.4-5.1,4.4c-1.6,0-3-0.5-4.2-1.3
			l1-1.9c0.9,0.6,1.9,1,3,1c1.6,0,2.6-0.8,2.6-2.1v-1.1c-0.6,0.9-1.6,1.4-2.9,1.4c-2.5,0-4.2-1.8-4.2-4.6
			C130.4,9,132.1,7.1,134.5,7.1z M70.3,7.1c3.4,0,4.9,2.2,4.7,5.7h-6.8c0.3,1.2,1.2,1.9,2.5,1.9c0.9,0,1.8-0.4,2.4-1l1.4,1.5
			c-1,1.1-2.4,1.7-4.1,1.7c-3,0-5-2-5-4.8C65.3,9.1,67.3,7.1,70.3,7.1z M79.6,3.6v5c0.7-1,1.7-1.5,3-1.5c2.7,0,4.5,2,4.5,4.9
			c0,2.9-1.8,4.8-4.4,4.8c-1.3,0-2.4-0.5-3.1-1.5v1.4h-2.7V3.6H79.6z M92.1,7.1c1.3,0,2.7,0.4,3.7,1.1L94.9,10
			c-1-0.6-2.1-0.9-2.9-0.9c-0.6,0-1.1,0.2-1.1,0.7c0,1.4,5,0.7,5,4.1c0,2-1.7,3-3.9,3c-1.5,0-3-0.5-4.1-1.3l0.9-1.8
			c1,0.8,2.3,1.2,3.3,1.2c0.7,0,1.2-0.2,1.2-0.7c0-1.5-4.9-0.7-4.9-4.1C88.3,8.1,90,7.1,92.1,7.1z M50,4.4l2.6,9.4l2.6-9.4H58
			l2.6,9.4l2.6-9.4h2.9l-4.1,12.4H59l-2.5-8.9L54,16.8h-2.9L47,4.4H50z M105.9,7.2l2.1,6.8l2.1-6.8h2.7l-3.5,9.5h-2.7l-2.1-6.3
			l-2,6.3h-2.7l-3.5-9.5l2.8,0l2.1,6.8l2.1-6.8H105.9z M116.7,7.2v9.5H114V7.2H116.7z M125.4,7.1c2.1,0,3.5,1.4,3.5,3.7v6h-2.7v-5.2
			c0-1.2-0.7-2-1.9-2c-1.4,0-2.2,1-2.2,2.5v4.7h-2.7V7.2h2.7v1.7C122.7,7.7,123.9,7.2,125.4,7.1z M82,9.3c-1.4,0-2.4,1.1-2.4,2.6
			c0,1.6,1,2.6,2.4,2.6c1.4,0,2.4-1.1,2.4-2.6C84.3,10.4,83.4,9.3,82,9.3z M135.2,9.3c-1.3,0-2.2,1-2.3,2.5c0,1.5,0.9,2.5,2.3,2.5
			c1.3,0,2.2-1,2.2-2.5C137.4,10.3,136.5,9.3,135.2,9.3z M70.3,9.2c-1.2,0-2,0.8-2.2,2.1h4.3C72.4,10,71.5,9.2,70.3,9.2z M115.3,3
			c0.9,0,1.5,0.6,1.5,1.5S116.2,6,115.3,6s-1.5-0.6-1.5-1.5S114.5,3,115.3,3z M145,0c1.1,0,2,0.9,2,2c0,1.1-0.9,2-2,2
			c-1.1,0-2-0.9-2-2S143.9,0,145,0z M145,0.4c-0.9,0-1.7,0.8-1.7,1.6s0.7,1.6,1.7,1.6c0.9,0,1.7-0.8,1.7-1.6S145.9,0.4,145,0.4z
			 M145,1c0.5,0,0.8,0.2,0.8,0.7c0,0.3-0.1,0.5-0.4,0.6l0.5,0.7h-0.4l-0.4-0.6h-0.6v0.6h-0.3V1H145z M145,1.2h-0.5v0.8h0.5
			c0.3,0,0.5-0.2,0.5-0.4C145.5,1.4,145.3,1.2,145,1.2z"/>
		<g>
			<g>
				<polygon class="st4" points="28,29.4 28,29.4 28,29.4 				"/>
				<path class="st4" d="M3.1,3.6c0,0-0.1,0-0.1,0C2.4,3.4,1.9,3.3,1.3,3.4c0,0,0.1,0,0.2,0C3.3,2.9,7.1,4.2,14.3,7c0,0,0,0,0,0
					c2.1,1,3.9,1,7.4,11.9c2.3,7.2,4,11,6.4,10.4c-0.6,0.2-1.2,0.4-1.9,0.4l0,0c0,0-4.9,0.5-8.5-5.1c-3.2-5-9.1-18.7-14.4-21
					c0,0-0.1,0-0.1,0C3.2,3.6,3.1,3.6,3.1,3.6z"/>
			</g>
			<g>
				<polygon class="st5" points="9.2,29.4 9.2,29.4 9.2,29.4 				"/>
				<path class="st5" d="M34.2,3.6c0,0,0.1,0,0.1,0c0.5-0.2,1.1-0.3,1.6-0.2c0,0-0.1,0-0.2,0C33.9,2.9,30.1,4.2,23,7c0,0,0,0,0,0
					c-2.1,1-3.9,1-7.4,11.9c-2.3,7.2-4,11-6.4,10.4c0.6,0.2,1.2,0.4,1.9,0.4l0,0c0,0,4.9,0.5,8.5-5.1c3.2-5,9.1-18.7,14.4-21
					c0,0,0.1,0,0.1,0C34.1,3.6,34.2,3.6,34.2,3.6z"/>
			</g>
			<path class="st6" d="M0.1,7.6C0.7,13.3,4.5,23,5.7,25.3c0.8,1.6,2.1,4.1,4.8,4.4l0,0l0,0c-3.1-0.4-5.1-8.9-3.3-16.4
				C9,5.8,14.3,7,14.3,7C1.5,1.9-0.5,1.9,0.1,7.6z"/>
			<path class="st6" d="M37.2,7.6c-0.6,5.7-4.4,15.3-5.6,17.7c-0.8,1.6-2.1,4.1-4.8,4.4l0,0l0,0c3.1-0.4,5.1-8.9,3.3-16.4
				C28.3,5.8,22.9,7,22.9,7C35.8,1.9,37.8,1.9,37.2,7.6z"/>
		</g>
	</g>
</g>
</svg>
