<?xml version="1.0" encoding="UTF-8"?>
<svg width="128px" height="92px" viewBox="0 0 128 92" version="1.1" xmlns="http://www.w3.org/2000/svg" xmlns:xlink="http://www.w3.org/1999/xlink">
    <!-- Generator: Sketch 52.2 (67145) - http://www.bohemiancoding.com/sketch -->
    <title>Icon</title>
    <desc>Created with Sketch.</desc>
    <g id="Symbols" stroke="none" stroke-width="1" fill="none" fill-rule="evenodd">
        <g id="Logo-/-Icon" transform="translate(-36.000000, -54.000000)" fill-rule="nonzero">
            <g id="Icon" transform="translate(36.000000, 54.000000)">
                <path d="M10.9,1.77 C10.77,1.72 10.64,1.67 10.51,1.62 C8.64,0.98 6.8,0.76 5,1.06 C5,1.06 5.18,0.98 5.58,0.91 C11.9,-0.55 24.87,3.78 49.4,13.55 C49.4,13.55 49.4,13.55 49.4,13.55 C56.7,16.88 62.6,16.84 74.65,54.45 C82.53,79.03 88.49,92.06 96.42,90.05 C94.52,90.87 92.35,91.34 89.86,91.29 C89.86,91.29 73.1,93.06 60.89,73.96 C50.04,57.01 29.83,10.1 11.72,2.1 C11.61,2.05 11.5,2.01 11.4,1.96 C11.23,1.9 11.07,1.83 10.9,1.77 Z" id="Shape" fill="#005C85"></path>
                <path d="M117.52,1.77 C117.65,1.72 117.78,1.67 117.91,1.62 C119.78,0.98 121.62,0.76 123.42,1.06 C123.42,1.06 123.24,0.98 122.84,0.91 C116.52,-0.55 103.55,3.78 79.02,13.55 C79.02,13.55 79.02,13.55 79.02,13.55 C71.72,16.88 65.82,16.84 53.77,54.45 C45.89,79.03 39.93,92.06 32,90.05 C33.9,90.87 36.07,91.34 38.56,91.29 C38.56,91.29 55.32,93.06 67.53,73.96 C78.38,57 98.59,10.08 116.7,2.09 C116.81,2.04 116.92,2 117.02,1.95 C117.2,1.9 117.36,1.83 117.52,1.77 Z" id="Shape" fill="#0078A5"></path>
                <path d="M0.77,15.61 C-1.34,-4 5.43,-4 49.51,13.56 C49.51,13.56 31.16,9.27 24.93,35.16 C18.81,60.6 25.72,89.69 36.28,91.2 C26.96,90.08 22.81,81.63 19.94,76.1 C15.81,68.13 2.88,35.21 0.77,15.61 Z M127.65,15.61 C125.54,35.21 112.61,68.13 108.48,76.1 C105.61,81.63 101.46,90.08 92.14,91.2 C102.7,89.69 109.61,60.6 103.49,35.16 C97.26,9.27 78.91,13.56 78.91,13.56 C122.99,-4 129.77,-4 127.65,15.61 Z" id="Shape" fill="#0099CF"></path>
            </g>
        </g>
    </g>
</svg>