<?xml version="1.0" encoding="utf-8"?>
<!-- Generator: Adobe Illustrator 24.2.1, SVG Export Plug-In . SVG Version: 6.00 Build 0)  -->
<svg version="1.1" id="Layer_1" xmlns="http://www.w3.org/2000/svg" xmlns:xlink="http://www.w3.org/1999/xlink" x="0px" y="0px"
	 viewBox="0 0 269.29 93.54" style="enable-background:new 0 0 269.29 93.54;" xml:space="preserve">
<style type="text/css">
	.st0{fill:#0C1726;}
	.st1{fill:#005C85;}
	.st2{fill:#0078A5;}
	.st3{fill:#0099CF;}
</style>
<g>
	<g>
		<path class="st0" d="M117.54,57.13l-3.81-13.47l-3.89,13.47h-4.4l-6.23-18.89h4.59l3.97,14.25l3.94-14.25h4.18l4,14.25l3.94-14.25
			h4.37l-6.26,18.89H117.54z"/>
		<path class="st0" d="M141.72,51.14h-10.42c0.49,1.84,1.89,2.92,3.75,2.92c1.38,0,2.67-0.54,3.67-1.54l2.19,2.21
			c-1.46,1.62-3.59,2.56-6.21,2.56c-4.64,0-7.58-2.97-7.58-7.37c0-4.48,3.05-7.45,7.48-7.45C139.7,42.47,142.08,45.85,141.72,51.14z
			 M137.84,48.68c-0.05-1.92-1.3-3.16-3.21-3.16c-1.84,0-3.08,1.24-3.4,3.16H137.84z"/>
		<path class="st0" d="M160.19,49.95c0,4.4-2.67,7.34-6.75,7.34c-2.02,0-3.62-0.81-4.67-2.27v2.1h-4.16V37.1h4.16v7.64
			c1.03-1.46,2.62-2.27,4.59-2.27C157.43,42.47,160.19,45.47,160.19,49.95z M155.98,49.81c0-2.32-1.46-3.99-3.59-3.99
			c-2.13,0-3.62,1.65-3.62,3.99c0,2.4,1.48,4.02,3.62,4.02C154.52,53.84,155.98,52.19,155.98,49.81z"/>
		<path class="st0" d="M173.49,44.04l-1.43,2.83c-1.59-0.89-3.21-1.4-4.43-1.4c-0.97,0-1.67,0.32-1.67,1.08
			c0,2.19,7.66,1.08,7.64,6.21c0,2.97-2.62,4.53-5.91,4.53c-2.35,0-4.64-0.7-6.29-2.02l1.35-2.81c1.51,1.16,3.45,1.81,5.05,1.81
			c1.05,0,1.84-0.35,1.84-1.13c0-2.32-7.53-1.08-7.53-6.18c0-3,2.56-4.53,5.72-4.53C169.82,42.42,171.87,43.01,173.49,44.04z"/>
		<path class="st0" d="M189.82,57.13l-3.13-9.58l-3.1,9.58h-4.16l-5.32-14.49l4.24-0.03L181.59,53l3.13-10.39h4.08L191.98,53
			l3.18-10.39h4.1l-5.29,14.52H189.82z"/>
		<path class="st0" d="M205.42,38.48c0,1.35-0.92,2.32-2.24,2.32c-1.32,0-2.24-0.97-2.24-2.32c0-1.35,0.92-2.32,2.24-2.32
			C204.51,36.16,205.42,37.13,205.42,38.48z M201.11,57.13V42.61h4.16v14.52H201.11z"/>
		<path class="st0" d="M223.75,48.01v9.12h-4.16v-7.91c0-1.84-1.08-2.97-2.86-2.97c-2.08,0.03-3.32,1.59-3.32,3.73v7.15h-4.16V42.61
			h4.16v2.54c1.03-1.81,2.75-2.67,5.02-2.7C221.67,42.45,223.75,44.6,223.75,48.01z"/>
		<path class="st0" d="M240.94,55.78c0,4.13-3.1,6.75-7.75,6.75c-2.46,0-4.64-0.78-6.32-1.92l1.54-2.92
			c1.32,0.95,2.86,1.46,4.51,1.46c2.38,0,3.89-1.27,3.89-3.24v-1.65c-0.97,1.35-2.46,2.1-4.37,2.1c-3.75,0-6.34-2.81-6.34-7.02
			c0-4.1,2.54-6.88,6.23-6.88c1.97-0.03,3.48,0.76,4.48,2.11v-1.97h4.13V55.78z M236.82,49.46c0-2.24-1.38-3.78-3.4-3.78
			c-2.02,0-3.4,1.57-3.43,3.78c0.03,2.21,1.38,3.75,3.43,3.75C235.44,53.22,236.82,51.68,236.82,49.46z"/>
	</g>
	<g>
		<g>
			<polygon class="st1" points="71.01,66.35 71,66.36 71.01,66.35 			"/>
			<path class="st1" d="M33,27.12c-0.06-0.02-0.12-0.05-0.17-0.06c-0.83-0.29-1.65-0.38-2.45-0.25c0,0,0.08-0.04,0.26-0.07
				c2.81-0.65,8.57,1.28,19.48,5.62c0,0,0,0,0,0c3.25,1.48,5.87,1.46,11.22,18.18c3.5,10.93,6.15,16.72,9.67,15.82
				c-0.84,0.36-1.81,0.57-2.92,0.55l0,0c0,0-7.45,0.79-12.88-7.7c-4.82-7.54-13.8-28.39-21.85-31.94c-0.05-0.02-0.1-0.04-0.14-0.06
				C33.14,27.17,33.07,27.15,33,27.12z"/>
		</g>
		<g>
			<polygon class="st2" points="42.38,66.35 42.38,66.36 42.38,66.35 			"/>
			<path class="st2" d="M80.39,27.12c0.06-0.02,0.12-0.05,0.17-0.06c0.83-0.29,1.65-0.38,2.45-0.25c0,0-0.08-0.04-0.26-0.07
				c-2.81-0.65-8.57,1.28-19.48,5.62c0,0,0,0,0,0c-3.25,1.48-5.87,1.46-11.22,18.18c-3.5,10.93-6.15,16.72-9.67,15.82
				c0.84,0.36,1.81,0.57,2.92,0.55l0,0c0,0,7.45,0.79,12.88-7.7c4.82-7.54,13.8-28.39,21.85-31.94c0.05-0.02,0.1-0.04,0.14-0.06
				C80.24,27.17,80.31,27.15,80.39,27.12z"/>
		</g>
		<path class="st3" d="M28.5,33.27c0.94,8.71,6.69,23.34,8.52,26.89c1.27,2.46,3.12,6.21,7.26,6.71l0,0l0,0
			c-4.69-0.67-7.77-13.6-5.05-24.91c2.77-11.51,10.92-9.6,10.92-9.6C30.57,24.55,27.56,24.55,28.5,33.27z"/>
		<path class="st3" d="M84.89,33.27c-0.94,8.71-6.69,23.34-8.52,26.89c-1.27,2.46-3.12,6.21-7.26,6.71l0,0l0,0
			c4.69-0.67,7.77-13.6,5.05-24.91c-2.77-11.51-10.92-9.6-10.92-9.6C82.82,24.55,85.83,24.55,84.89,33.27z"/>
	</g>
</g>
<g>
	<path class="st0" d="M246.61,33.63c0,1.55-1.25,2.86-2.85,2.86c-1.59,0-2.82-1.29-2.82-2.84s1.24-2.86,2.84-2.86
		C245.37,30.79,246.61,32.07,246.61,33.63z M246.14,33.63c0-1.28-1.02-2.34-2.35-2.34c-1.34,0-2.36,1.07-2.36,2.35
		s1.01,2.34,2.34,2.34C245.11,35.99,246.14,34.91,246.14,33.63z M244.39,34.03l0.65,0.95h-0.55l-0.53-0.85h-0.13h-0.66v0.85h-0.48
		v-2.83h1.14c0.74,0,1.15,0.35,1.15,0.97C244.99,33.56,244.78,33.88,244.39,34.03z M243.84,33.72c0.44,0,0.69-0.22,0.69-0.59
		c0-0.38-0.26-0.58-0.69-0.58h-0.66v1.17H243.84z"/>
</g>
</svg>
